HIERARCHY
ROOT HipCenter
{
    OFFSET 0.0 0.0 -0.0
    CHANNELS 6 Xposition Yposition Zposition Zrotation Xrotation Yrotation
    JOINT Spine
    {
        OFFSET 0.0 11.541913986206055 0.0
        CHANNELS 3 Zrotation Xrotation Yrotation
        JOINT ShoulderCenter
        {
            OFFSET 0.0 33.018985748291016 0.0
            CHANNELS 3 Zrotation Xrotation Yrotation
            JOINT LeftShoulder
            {
                OFFSET 18.641685485839844 0.0 0.0
                CHANNELS 3 Zrotation Xrotation Yrotation
                JOINT LeftElbow
                {
                    OFFSET 28.85647201538086 0.0 0.0
                    CHANNELS 3 Zrotation Xrotation Yrotation
                    JOINT LeftWrist
                    {
                        OFFSET 29.324241638183594 0.0 0.0
                        CHANNELS 3 Zrotation Xrotation Yrotation
                        JOINT LeftHand
                        {
                            OFFSET 3.777900218963623 0.0 0.0
                            CHANNELS 3 Zrotation Xrotation Yrotation
                            End Site
                            {
                                OFFSET 1.511159896850586 0.0 0.0
                            }
                        }
                    }
                }
            }
            JOINT RightShoulder
            {
                OFFSET -18.641685485839844 0.0 0.0
                CHANNELS 3 Zrotation Xrotation Yrotation
                JOINT RightElbow
                {
                    OFFSET -28.85647201538086 0.0 0.0
                    CHANNELS 3 Zrotation Xrotation Yrotation
                    JOINT RightWrist
                    {
                        OFFSET -29.324241638183594 0.0 0.0
                        CHANNELS 3 Zrotation Xrotation Yrotation
                        JOINT RightHand
                        {
                            OFFSET -3.777900218963623 0.0 0.0
                            CHANNELS 3 Zrotation Xrotation Yrotation
                            End Site
                            {
                                OFFSET -1.511159896850586 0.0 0.0
                            }
                        }
                    }
                }
            }
            End Site
            {
                OFFSET 0.0 13.207594871520996 0.0
            }
        }
    }
    JOINT LeftHip
    {
        OFFSET 13.48195743560791 0.0 0.0
        CHANNELS 3 Zrotation Xrotation Yrotation
        JOINT LeftKnee
        {
            OFFSET 0.0 -41.181251525878906 0.0
            CHANNELS 3 Zrotation Xrotation Yrotation
            JOINT LeftAnkle
            {
                OFFSET 0.0 -42.33193588256836 0.0
                CHANNELS 3 Zrotation Xrotation Yrotation
                JOINT LeftFoot
                {
                    OFFSET 0.0 -13.492183685302734 0.0
                    CHANNELS 3 Zrotation Xrotation Yrotation
                    End Site
                    {
                        OFFSET 0.0 0.0 5.396873474121094
                    }
                }
            }
        }
    }
    JOINT RightHip
    {
        OFFSET -13.48195743560791 0.0 0.0
        CHANNELS 3 Zrotation Xrotation Yrotation
        JOINT RightKnee
        {
            OFFSET 0.0 -41.181251525878906 0.0
            CHANNELS 3 Zrotation Xrotation Yrotation
            JOINT RightAnkle
            {
                OFFSET 0.0 -42.33193588256836 0.0
                CHANNELS 3 Zrotation Xrotation Yrotation
                JOINT RightFoot
                {
                    OFFSET 0.0 -13.492183685302734 0.0
                    CHANNELS 3 Zrotation Xrotation Yrotation
                    End Site
                    {
                        OFFSET 0.0 0.0 5.396873474121094
                    }
                }
            }
        }
    }
}
MOTION
Frames: 5
Frame Time: 0.03333333333333333
-124.30000305175781 39.0 -57.79999923706055 -45.00002371051893 -5.485106931773314 85.97261210096259 7.552114628890042 13.778590082521534 -0.8150974590198804 2.5563879994934085e-06 -4.87114007304706e-07 -1.743623200198214 125.690649591036 -1.7321232799409982 -122.60086952022917 4.356227526391413e-06 -7.102743468208895e-08 61.73754479648706 -9.732516031368877e-07 -7.775421717492525 36.076241210768586 3.1805546814635168e-15 7.951386703658792e-16 3.1805546814635168e-15 -112.09914302655933 1.8975631595825893 88.82685990606606 -3.237039666345096e-06 -4.620984567226624e-06 -70.61554764989177 -179.99998295560928 -84.83505756360364 162.65165163788248 7.20594420019078e-16 0.0 0.0 12.329693235456375 -54.32583732363794 6.444898665953369 0.2422799805198196 26.043524892969774 -37.73450575392753 74.46571430728679 -54.999504053470886 131.42415524748867 -5.565970692561154e-15 1.5448672043175555e-31 -3.1805546814635168e-15 66.75070279794053 -83.56026030776981 26.81921491358222 -58.43408026868745 54.917909404686185 100.53778783880344 -120.28292691263634 -54.498865405549786 -159.1323649971068 -6.3611093629270335e-15 3.1805546814635168e-15 -3.1805546814635168e-15
-125.5 37.099998474121094 -58.39999771118164 -44.29270444812813 -4.988727760063521 85.4171522148026 8.35355910272077 13.89352896090542 -1.0210072314564773 1.7946435565274518e-06 6.055647530061714e-07 -1.4768925360432459 124.18870414081647 -0.9966017072780899 -121.70626936659815 4.622541298881685e-06 -4.82764358687306e-07 62.44340125800927 2.1641534964059275e-07 -7.436706223815765 33.84763326135563 3.1805546814635168e-15 8.827812596100317e-32 3.1805546814635168e-15 -111.96473353614219 1.8447849234127514 85.85425832997093 -9.979991821582228e-07 -3.6556033323876586e-06 -68.8528508899497 179.9999958377373 -77.50117648126711 162.48327450723858 -2.267387614715202e-16 2.4848083448933722e-17 1.2734642767578532e-16 10.990032506132481 -53.638959179801724 4.406009849157626 -0.6569342894026937 24.078110719333647 -34.26937253347936 68.64894135990032 -55.163564921910364 125.35480437479889 3.1805546814635168e-15 1.5902773407317584e-15 3.1805546814635168e-15 83.8130733302144 -84.78935702673601 41.86028449042595 -65.0669788536708 54.888205932704324 107.58879801364486 -119.74783454603813 -50.61738764335862 -158.99198347863467 -6.361109362927033e-15 8.827812596100317e-32 -1.5902773407317582e-15
-126.80000305175781 35.20000076293945 -58.999996185302734 -43.945626606927604 -4.4641563994532785 85.12315640199658 8.329086811270521 13.555077204427423 -0.8052980089168571 -2.758567654943249e-06 -2.240710298685282e-06 -2.025579008671201 123.57030020178918 0.39260304090858067 -121.04818579710924 -2.5908703355842754e-06 -7.315083360966017e-07 62.91590206728716 2.3646484176004112e-06 -7.145488706461518 33.1930812080667 -3.1805546814635168e-15 7.95138670365879e-16 6.3611093629270335e-15 -110.8808583041682 1.2459792805351373 82.83491731770283 7.934336090329206e-07 -3.4808932342602164e-06 -66.20028439023642 179.99999453688088 -75.46576377201977 163.83156761795016 1.2424041724466862e-17 2.155227684594804e-35 1.987846675914698e-16 9.003422453314414 -52.69040224050379 -0.8960997198677348 -1.5975106032492892 22.093609507160707 -29.632458200991593 63.86932125713778 -51.800591046464106 120.09070581095351 -7.95138670365879e-16 3.1805546814635164e-15 -1.5902773407317582e-15 113.25159635824363 -85.15445642719084 69.08375528633427 -71.65253160947971 54.13245489971755 114.93308444506032 -120.26909481534861 -48.90932571449604 -159.42132059893237 1.2722218725854067e-14 -3.531125038440127e-31 -3.1805546814635168e-15
-128.0 33.29999923706055 -59.79999923706055 -43.243011605342204 -3.4738570476880146 83.73499553576337 7.0377791468836595 13.191406058330198 -0.43278844682917433 -1.684274725649495e-06 5.678494242482285e-07 -0.5136358506907209 123.32748114453005 0.34823536671848904 -120.2765859107823 -1.645895776057228e-06 4.787969385949193e-06 64.04153163230515 -4.365593436099252e-06 -8.0806008797092 30.286885648183492 -3.1805546814635168e-15 7.951386703658791e-16 3.1805546814635168e-15 -111.75793887279784 3.4554372193223113 81.61162883039701 3.5464305703061314e-06 2.8393518817890634e-06 -64.33645363060386 -179.99999833846118 -70.65650311668246 165.22690421481423 -1.180283963824352e-15 -1.0237331501825319e-33 9.93923337957349e-17 8.168443722572041 -51.42964022949414 -4.592935823494531 -2.6725246148353263 21.486985314668704 -26.702780376142528 63.936830671070695 -49.561178367469445 118.8150431831051 1.5902773407317582e-15 0.0 0.0 128.1846107203803 -83.73252813935483 83.4607745509577 -76.72104103317247 53.477624192796135 119.44687018582393 -116.19610219510017 -42.65173351459327 -157.85931986942126 6.3611093629270335e-15 -4.770832022195275e-15 2.648343778830095e-31
-129.10000610351562 31.700000762939453 -60.5 -42.17289263526741 -0.9990375792200404 82.35694971189221 3.196745440731128 12.82221362333561 -0.21394258561237658 -2.1235119436736994e-06 1.4233335455727006e-06 4.328216216489139 124.70979487705908 -1.621569356287979 -116.89885368700037 -1.4364644307442496e-06 -4.853052715985694e-07 63.582437800422355 -4.762196018773933e-06 -6.987293921375814 29.829868250591147 -3.1805546814635168e-15 6.3611093629270335e-15 3.1805546814635168e-15 -110.30954499101495 6.291615830218726 80.97413212207256 7.280293147640908e-07 1.5435522388884223e-07 -61.5789125616476 -179.9999958295816 -69.8175034064259 164.15512120955802 1.565429257282825e-15 -4.0733803238841795e-33 -2.981770013872048e-16 7.684910403123292 -51.448848145284344 -2.5758594807547945 -4.037699591774506 23.211376699134075 -29.115017616748077 69.6670680876049 -51.333469778777896 124.56321158568679 1.7655625192200634e-31 3.1805546814635168e-15 -6.3611093629270335e-15 132.08564871012737 -82.24855773376518 89.43527432930165 -81.19948002335632 54.19516547646377 122.3812775805036 -118.6306003749391 -42.579693261216065 -158.6462916666535 0.0 0.0 6.3611093629270335e-15
